<svg width="36" height="36" viewBox="0 0 36 36" fill="none" xmlns="http://www.w3.org/2000/svg">
<path fill-rule="evenodd" clip-rule="evenodd" d="M20.34 1.88283C20.7054 1.99775 21.0246 2.22624 21.2512 2.53507C21.4778 2.8439 21.6 3.21698 21.6 3.60003V12.6H28.8C29.1292 12.5999 29.4522 12.69 29.7338 12.8607C30.0153 13.0314 30.2447 13.276 30.3969 13.568C30.5491 13.8599 30.6183 14.188 30.597 14.5166C30.5757 14.8452 30.4646 15.1616 30.276 15.4314L17.676 33.4314C17.4567 33.7456 17.1429 33.9816 16.7802 34.1051C16.4175 34.2286 16.0249 34.2332 15.6594 34.1181C15.294 34.003 14.9748 33.7744 14.7483 33.4654C14.5217 33.1564 14.3997 32.7832 14.4 32.4V23.4H7.19997C6.87072 23.4002 6.54773 23.31 6.26616 23.1393C5.98459 22.9687 5.75523 22.7241 5.60303 22.4321C5.45083 22.1401 5.38163 21.812 5.40295 21.4835C5.42427 21.1549 5.53531 20.8385 5.72397 20.5686L18.324 2.56863C18.5436 2.25505 18.8575 2.01965 19.22 1.89665C19.5826 1.77364 19.9749 1.76943 20.34 1.88463V1.88283Z" fill="#1B1F24"/>
</svg>
