<svg width="20" height="32" viewBox="0 0 20 32" fill="none" xmlns="http://www.w3.org/2000/svg">
    <path fill-rule="evenodd" clip-rule="evenodd" d="M7.79237 25.7357L16.1116 15.6472H10.0587L11.1607 7.00389L3.68466 17.828H8.91639L7.79237 25.7357ZM6.00302 20.3625H1.45206C0.897781 20.3625 0.494793 20.1199 0.243093 19.6346C-0.00860676 19.1494 0.0264433 18.6706 0.348243 18.1981L11.8789 1.50501C12.0455 1.27426 12.2744 1.10839 12.5654 1.00742C12.8564 0.906466 13.1391 0.915604 13.4135 1.03483C13.6878 1.14765 13.9086 1.33624 14.0759 1.60059C14.2432 1.86497 14.315 2.14079 14.2913 2.42807L12.9365 13.1126H18.5635C19.1592 13.1126 19.5825 13.3795 19.8333 13.9131C20.0841 14.4467 20.0185 14.9414 19.6365 15.3972L7.00873 30.6413C6.80458 30.8686 6.56301 31.0196 6.28401 31.0944C6.00501 31.1693 5.72672 31.1341 5.44914 30.9889C5.16519 30.85 4.96072 30.6583 4.83572 30.4137C4.71072 30.169 4.66521 29.8948 4.69918 29.5913L6.00302 20.3625Z" fill="#1B1F24"/>
</svg>