<svg width="36" height="36" viewBox="0 0 36 36" fill="none" xmlns="http://www.w3.org/2000/svg">
<path fill-rule="evenodd" clip-rule="evenodd" d="M17.5 2C10.6042 2 5 7 5 13C5 22.04 17.5 34 17.5 34C17.5 34 30 22.04 30 13C30 7 24.3958 2 17.5 2ZM17.5 31.1C13.625 27.04 7.08333 18.88 7.08333 13C7.08333 8.04 11.7708 4 17.5 4C20.2917 4 22.9375 4.96 24.9167 6.72C26.8333 8.44 27.9167 10.66 27.9167 13C27.9167 18.88 21.375 27.04 17.5 31.1ZM21.6667 13C21.6667 15.22 19.8125 17 17.5 17C15.1875 17 13.3333 15.22 13.3333 13C13.3333 10.78 15.1875 9 17.5 9C19.8125 9 21.6667 10.78 21.6667 13Z" fill="#1B1F24"/>
</svg>
