<svg width="36" height="36" viewBox="0 0 36 36" fill="none" xmlns="http://www.w3.org/2000/svg">
<path d="M33.2075 27.7758L19.0405 8.24496C18.5262 7.53781 17.4735 7.53781 16.9633 8.24496L2.79228 27.7758C2.75741 27.8238 2.73651 27.8805 2.73192 27.9397C2.72733 27.9989 2.73921 28.0582 2.76626 28.111C2.7933 28.1639 2.83445 28.2082 2.88514 28.2391C2.93583 28.27 2.99408 28.2862 3.05344 28.286H6.06683C6.27174 28.286 6.4646 28.1856 6.58514 28.0209L17.9999 12.2869L29.4146 28.0209C29.5351 28.1856 29.728 28.286 29.9329 28.286H32.9463C33.2075 28.286 33.3601 27.9887 33.2075 27.7758Z" fill="#1B1F24"/>
</svg>
